<svg width="138" height="138" viewBox="0 0 138 138" fill="none" xmlns="http://www.w3.org/2000/svg">
<path d="M46.0003 126.5C38.0461 126.5 31.2649 123.696 25.6568 118.088C20.0486 112.48 17.2464 105.7 17.2503 97.7501V46.0001C14.0878 46.0001 11.3795 44.8731 9.1255 42.6191C6.8715 40.3651 5.74642 37.6588 5.75025 34.5001V23.0001C5.75025 19.8376 6.87725 17.1294 9.13125 14.8754C11.3853 12.6214 14.0916 11.4963 17.2503 11.5001H74.7503C77.9128 11.5001 80.621 12.6271 82.875 14.8811C85.129 17.1351 86.2541 19.8415 86.2503 23.0001V34.5001C86.2503 37.6626 85.1233 40.3709 82.8693 42.6249C80.6153 44.8789 77.9089 46.004 74.7503 46.0001V63.3939C70.7253 65.9814 67.2983 69.2167 64.4693 73.0999C61.6403 76.9831 59.6527 81.3665 58.5065 86.2501H46.0003V74.7501H63.2503V69.0001H46.0003V57.5001H63.2503V46.0001H28.7503V97.7501C28.7503 102.542 30.4273 106.615 33.7815 109.969C37.1357 113.323 41.2086 115 46.0003 115C48.8753 115 51.5107 114.377 53.9065 113.131C56.3023 111.886 58.3148 110.161 59.944 107.956C60.7107 109.873 61.5732 111.694 62.5315 113.419C63.4898 115.144 64.6398 116.821 65.9815 118.45C63.394 120.942 60.3983 122.906 56.9943 124.344C53.5903 125.781 49.9256 126.5 46.0003 126.5ZM46.0003 103.5V92.0001H57.644C57.4523 93.9168 57.4274 95.8335 57.5693 97.7501C57.7111 99.6668 58.0235 101.583 58.5065 103.5H46.0003ZM94.8753 109.25C98.9003 109.25 102.302 107.861 105.082 105.081C107.861 102.302 109.25 98.9001 109.25 94.8751C109.25 90.8501 107.861 87.4481 105.082 84.6689C102.302 81.8897 98.9003 80.5001 94.8753 80.5001C90.8503 80.5001 87.4482 81.8897 84.669 84.6689C81.8898 87.4481 80.5003 90.8501 80.5003 94.8751C80.5003 98.9001 81.8898 102.302 84.669 105.081C87.4482 107.861 90.8503 109.25 94.8753 109.25ZM124.2 132.25L108.675 116.725C106.567 118.067 104.363 119.073 102.063 119.744C99.7628 120.415 97.3669 120.75 94.8753 120.75C87.6878 120.75 81.5793 118.234 76.55 113.2C71.5207 108.167 69.0041 102.059 69.0003 94.8751C69.0003 87.6876 71.5168 81.5773 76.55 76.5441C81.5832 71.511 87.6916 68.9963 94.8753 69.0001C102.063 69.0001 108.173 71.5167 113.206 76.5499C118.239 81.583 120.754 87.6915 120.75 94.8751C120.75 97.3668 120.415 99.7626 119.744 102.063C119.073 104.363 118.067 106.567 116.725 108.675L132.25 124.2L124.2 132.25Z" fill="#AAD999"/>
</svg>
