<svg width="137" height="137" viewBox="0 0 137 137" fill="none" xmlns="http://www.w3.org/2000/svg">
<path d="M110.163 93.5483C106.817 90.2 102.908 87.4673 98.6144 85.4752C104.669 80.5699 108.532 73.085 108.532 64.6912C108.532 49.8817 96.1818 37.7321 81.3723 37.9593C66.7901 38.1865 55.0414 50.0688 55.0414 64.6912C55.0414 73.085 58.9175 80.5699 64.9589 85.4752C60.6645 87.4658 56.7552 90.1988 53.4108 93.5483C46.113 100.859 41.9695 110.51 41.7022 120.801C41.6986 120.944 41.7236 121.086 41.7758 121.219C41.8279 121.352 41.9061 121.473 42.0058 121.575C42.1054 121.677 42.2245 121.758 42.356 121.814C42.4875 121.869 42.6288 121.897 42.7715 121.897H50.2564C50.8311 121.897 51.3123 121.443 51.3257 120.868C51.5796 113.116 54.7206 105.858 60.2408 100.352C63.0655 97.5117 66.4254 95.2604 70.1261 93.7279C73.8267 92.1953 77.7946 91.4119 81.8 91.4231C89.9399 91.4231 97.5986 94.5908 103.359 100.352C108.866 105.858 112.007 113.116 112.274 120.868C112.288 121.443 112.769 121.897 113.344 121.897H120.829C120.971 121.897 121.113 121.869 121.244 121.814C121.376 121.758 121.495 121.677 121.594 121.575C121.694 121.473 121.772 121.352 121.824 121.219C121.876 121.086 121.901 120.944 121.898 120.801C121.631 110.51 117.487 100.859 110.163 93.5483ZM81.8 81.7996C77.2289 81.7996 72.925 80.0219 69.7038 76.7874C68.0873 75.1835 66.8103 73.2705 65.9492 71.1624C65.088 69.0543 64.6603 66.7944 64.6916 64.5174C64.7317 60.1334 66.4827 55.8964 69.5435 52.7554C72.7513 49.4674 77.0417 47.6362 81.6263 47.5828C86.1573 47.5427 90.5547 49.307 93.7893 52.4747C97.104 55.7226 98.9218 60.0666 98.9218 64.6912C98.9218 69.2623 97.1441 73.5528 93.9096 76.7874C92.3227 78.3819 90.4353 79.6458 88.3567 80.5062C86.2782 81.3665 84.0496 81.8061 81.8 81.7996ZM48.3183 68.2198C48.198 67.057 48.1312 65.8808 48.1312 64.6912C48.1312 62.566 48.3317 60.4943 48.7059 58.476C48.7995 57.9948 48.5456 57.5003 48.1045 57.2998C46.2867 56.4845 44.616 55.3618 43.1724 53.945C41.4715 52.2957 40.133 50.31 39.2424 48.1145C38.3518 45.919 37.9286 43.562 37.9998 41.1939C38.1201 36.9034 39.8443 32.8268 42.8517 29.7526C46.1531 26.371 50.5905 24.5265 55.3087 24.58C59.5725 24.6201 63.6892 26.2641 66.8034 29.1779C67.8593 30.1669 68.7682 31.263 69.5301 32.4392C69.7974 32.8535 70.3187 33.0273 70.7731 32.8669C73.1255 32.0515 75.6116 31.4768 78.1645 31.2095C78.913 31.1293 79.3407 30.3273 79.0065 29.659C74.6626 21.0647 65.7876 15.1303 55.5226 14.9699C40.6997 14.7427 28.3496 26.8923 28.3496 41.6884C28.3496 50.0822 32.2124 57.5671 38.2671 62.4724C34.0168 64.4372 30.1006 67.1505 26.7056 70.5455C19.3811 77.8566 15.2376 87.5068 14.9703 97.812C14.9667 97.9546 14.9918 98.0966 15.0439 98.2294C15.096 98.3622 15.1742 98.4833 15.2739 98.5854C15.3735 98.6876 15.4926 98.7687 15.6241 98.8241C15.7556 98.8795 15.8969 98.908 16.0396 98.908H23.5379C24.1126 98.908 24.5938 98.4536 24.6072 97.8788C24.8611 90.1266 28.0021 82.8689 33.5222 77.3621C37.4518 73.4325 42.2636 70.7059 47.5164 69.3826C48.0376 69.249 48.3852 68.7544 48.3183 68.2198Z" fill="#AAD999"/>
</svg>
