<svg width="59" height="62" viewBox="0 0 59 62" fill="none" xmlns="http://www.w3.org/2000/svg">
<path d="M22.4323 53.8193L1.72082 32.6697C1.47499 32.4179 1.30044 32.1452 1.19719 31.8514C1.09394 31.5577 1.04314 31.243 1.04478 30.9073C1.04478 30.5715 1.0964 30.2568 1.19965 29.9631C1.3029 29.6693 1.47662 29.3966 1.72082 29.1448L22.4323 7.93224C23.0059 7.34475 23.7229 7.05101 24.5833 7.05101C25.4437 7.05101 26.1812 7.36574 26.7958 7.99519C27.4104 8.62464 27.7177 9.359 27.7177 10.1983C27.7177 11.0375 27.4104 11.7719 26.7958 12.4014L8.72707 30.9073L26.7958 49.4131C27.3694 50.0006 27.6562 50.7249 27.6562 51.586C27.6562 52.4471 27.3489 53.1915 26.7344 53.8193C26.1198 54.4488 25.4028 54.7635 24.5833 54.7635C23.7639 54.7635 23.0469 54.4488 22.4323 53.8193Z" fill="white"/>
</svg>
