<svg width="59" height="59" viewBox="0 0 59 59" fill="none" xmlns="http://www.w3.org/2000/svg">
<path d="M22.4325 51.8708L1.721 31.2208C1.47517 30.975 1.30063 30.7087 1.19738 30.4219C1.09413 30.1351 1.04332 29.8278 1.04496 29.5C1.04496 29.1722 1.09659 28.8649 1.19984 28.5781C1.30309 28.2913 1.47681 28.025 1.721 27.7792L22.4325 7.06771C23.0061 6.4941 23.7231 6.20729 24.5835 6.20729C25.4439 6.20729 26.1814 6.51458 26.796 7.12917C27.4106 7.74375 27.7179 8.46076 27.7179 9.28021C27.7179 10.0997 27.4106 10.8167 26.796 11.4312L8.72725 29.5L26.796 47.5687C27.3696 48.1424 27.6564 48.8495 27.6564 49.6903C27.6564 50.531 27.3491 51.2579 26.7345 51.8708C26.12 52.4854 25.4029 52.7927 24.5835 52.7927C23.7641 52.7927 23.047 52.4854 22.4325 51.8708Z" fill="white"/>
</svg>
