<svg width="157" height="157" viewBox="0 0 157 157" fill="none" xmlns="http://www.w3.org/2000/svg">
<path d="M127.587 78.4336C124.097 78.4517 120.677 79.4102 117.685 81.2082L103.67 67.1931L114.911 55.9526C116.749 54.114 117.781 51.6207 117.781 49.021C117.781 46.4213 116.749 43.928 114.911 42.0894L85.4979 12.6768C83.6594 10.8388 81.1661 9.80627 78.5663 9.80627C75.9666 9.80627 73.4733 10.8388 71.6348 12.6768L42.2222 42.0894C40.3841 43.928 39.3516 46.4213 39.3516 49.021C39.3516 51.6207 40.3841 54.114 42.2222 55.9526L53.4627 67.1931L39.4476 81.2082C35.2949 78.7443 30.3856 77.8812 25.6415 78.7809C20.8975 79.6806 16.645 82.2812 13.6828 86.0945C10.7206 89.9077 9.25236 94.6712 9.55382 99.4904C9.85529 104.31 11.9057 108.853 15.3201 112.267C18.7344 115.682 23.2778 117.732 28.097 118.034C32.9162 118.335 37.6797 116.867 41.4929 113.905C45.3061 110.942 47.9068 106.69 48.8065 101.946C49.7062 97.2018 48.843 92.2925 46.3791 88.1398L60.3942 74.1247L71.6348 85.3652C72.2418 85.9584 72.9241 86.4694 73.6642 86.8849V107.846H58.9579V147.063H98.1748V107.846H83.4684V86.88C84.2083 86.466 84.8906 85.9567 85.4979 85.3652L96.7384 74.1247L110.754 88.1398C108.583 91.8639 107.703 96.201 108.252 100.477C108.8 104.752 110.746 108.727 113.787 111.782C116.828 114.838 120.793 116.802 125.066 117.371C129.339 117.94 133.68 117.082 137.415 114.928C141.149 112.775 144.067 109.448 145.716 105.465C147.364 101.482 147.65 97.066 146.529 92.9035C145.408 88.7411 142.943 85.0657 139.518 82.4489C136.092 79.8321 131.898 78.4205 127.587 78.4336ZM39.3495 98.042C39.3495 99.9811 38.7745 101.877 37.6972 103.489C36.6199 105.101 35.0887 106.358 33.2972 107.1C31.5057 107.842 29.5344 108.036 27.6326 107.658C25.7308 107.28 23.9838 106.346 22.6127 104.975C21.2415 103.604 20.3078 101.857 19.9295 99.9547C19.5512 98.0529 19.7453 96.0816 20.4874 94.2901C21.2295 92.4986 22.4861 90.9674 24.0984 89.8901C25.7107 88.8128 27.6062 88.2378 29.5453 88.2378C32.1448 88.2404 34.637 89.2742 36.4751 91.1123C38.3131 92.9504 39.3469 95.4426 39.3495 98.042ZM88.3706 117.65V137.259H68.7621V117.65H88.3706ZM78.5663 78.4336L49.1537 49.021L78.5663 19.6084L107.979 49.021L78.5663 78.4336ZM127.587 107.846C125.648 107.846 123.753 107.271 122.14 106.194C120.528 105.117 119.272 103.585 118.529 101.794C117.787 100.002 117.593 98.0312 117.972 96.1293C118.35 94.2275 119.284 92.4806 120.655 91.1094C122.026 89.7383 123.773 88.8045 125.675 88.4262C127.577 88.0479 129.548 88.2421 131.339 88.9841C133.131 89.7262 134.662 90.9828 135.739 92.5951C136.817 94.2074 137.392 96.103 137.392 98.042C137.389 100.641 136.355 103.134 134.517 104.972C132.679 106.81 130.187 107.844 127.587 107.846Z" fill="#AAD999"/>
</svg>
