<svg width="59" height="59" viewBox="0 0 59 59" fill="none" xmlns="http://www.w3.org/2000/svg">
<path d="M20.65 41.7917L29.5 32.9417L38.35 41.7917L41.7917 38.35L32.9417 29.5L41.7917 20.65L38.35 17.2083L29.5 26.0583L20.65 17.2083L17.2084 20.65L26.0584 29.5L17.2084 38.35L20.65 41.7917ZM29.5 54.0833C26.0993 54.0833 22.9035 53.4376 19.9125 52.1462C16.9215 50.8547 14.3198 49.1036 12.1073 46.8927C9.89481 44.6802 8.14366 42.0785 6.85385 39.0875C5.56405 36.0965 4.91833 32.9007 4.91669 29.5C4.91669 26.0993 5.56241 22.9035 6.85385 19.9125C8.1453 16.9215 9.89645 14.3198 12.1073 12.1073C14.3198 9.8948 16.9215 8.14364 19.9125 6.85384C22.9035 5.56403 26.0993 4.91831 29.5 4.91667C32.9007 4.91667 36.0965 5.56239 39.0875 6.85384C42.0785 8.14528 44.6802 9.89644 46.8927 12.1073C49.1052 14.3198 50.8572 16.9215 52.1486 19.9125C53.4401 22.9035 54.085 26.0993 54.0834 29.5C54.0834 32.9007 53.4376 36.0965 52.1462 39.0875C50.8547 42.0785 49.1036 44.6802 46.8927 46.8927C44.6802 49.1052 42.0785 50.8572 39.0875 52.1486C36.0965 53.4401 32.9007 54.085 29.5 54.0833ZM29.5 49.1667C34.9903 49.1667 39.6406 47.2615 43.4511 43.451C47.2615 39.6406 49.1667 34.9903 49.1667 29.5C49.1667 24.0097 47.2615 19.3594 43.4511 15.549C39.6406 11.7385 34.9903 9.83334 29.5 9.83334C24.0097 9.83334 19.3594 11.7385 15.549 15.549C11.7386 19.3594 9.83335 24.0097 9.83335 29.5C9.83335 34.9903 11.7386 39.6406 15.549 43.451C19.3594 47.2615 24.0097 49.1667 29.5 49.1667Z" fill="white"/>
</svg>
