<svg width="137" height="137" viewBox="0 0 137 137" fill="none" xmlns="http://www.w3.org/2000/svg">
<path d="M91.615 6.72786C91.615 5.36663 92.1557 4.06115 93.1183 3.09862C94.0808 2.13608 95.3863 1.59534 96.7475 1.59534H113.856C115.217 1.59534 116.523 2.13608 117.485 3.09862C118.448 4.06115 118.988 5.36663 118.988 6.72786V23.8363C118.988 25.1975 118.448 26.503 117.485 27.4655C116.523 28.428 115.217 28.9688 113.856 28.9688C112.495 28.9688 111.189 28.428 110.227 27.4655C109.264 26.503 108.723 25.1975 108.723 23.8363V19.1143L78.1336 49.7042C77.1712 50.6653 75.8667 51.2052 74.5066 51.2052C73.1465 51.2052 71.8419 50.6653 70.8796 49.7042L53.9765 32.8011L25.0975 61.6801C24.6276 62.1843 24.061 62.5888 23.4314 62.8693C22.8018 63.1498 22.1222 63.3007 21.433 63.3128C20.7439 63.325 20.0593 63.1982 19.4203 62.9401C18.7812 62.682 18.2006 62.2977 17.7132 61.8104C17.2259 61.323 16.8416 60.7424 16.5835 60.1033C16.3254 59.4643 16.1986 58.7797 16.2108 58.0906C16.2229 57.4014 16.3738 56.7218 16.6543 56.0922C16.9348 55.4626 17.3393 54.896 17.8435 54.4261L50.3495 21.9201C51.3119 20.959 52.6164 20.4191 53.9765 20.4191C55.3366 20.4191 56.6411 20.959 57.6035 21.9201L74.5066 38.8232L101.469 11.8604H96.7475C95.3863 11.8604 94.0808 11.3196 93.1183 10.3571C92.1557 9.39457 91.615 8.08909 91.615 6.72786ZM21.4705 83.7157C22.8317 83.7157 24.1372 84.2564 25.0998 85.219C26.0623 86.1815 26.603 87.487 26.603 88.8482V105.957C26.603 107.318 26.0623 108.623 25.0998 109.586C24.1372 110.548 22.8317 111.089 21.4705 111.089C20.1093 111.089 18.8038 110.548 17.8413 109.586C16.8787 108.623 16.338 107.318 16.338 105.957V88.8482C16.338 87.487 16.8787 86.1815 17.8413 85.219C18.8038 84.2564 20.1093 83.7157 21.4705 83.7157ZM53.9765 68.3181C53.9765 66.9569 53.4357 65.6514 52.4732 64.6889C51.5107 63.7264 50.2052 63.1856 48.844 63.1856C47.4827 63.1856 46.1773 63.7264 45.2147 64.6889C44.2522 65.6514 43.7114 66.9569 43.7114 68.3181V105.957C43.7114 107.318 44.2522 108.623 45.2147 109.586C46.1773 110.548 47.4827 111.089 48.844 111.089C50.2052 111.089 51.5107 110.548 52.4732 109.586C53.4357 108.623 53.9765 107.318 53.9765 105.957V68.3181ZM76.2174 76.8723C77.5786 76.8723 78.8841 77.4131 79.8467 78.3756C80.8092 79.3382 81.3499 80.6436 81.3499 82.0049V105.957C81.3499 107.318 80.8092 108.623 79.8467 109.586C78.8841 110.548 77.5786 111.089 76.2174 111.089C74.8562 111.089 73.5507 110.548 72.5882 109.586C71.6256 108.623 71.0849 107.318 71.0849 105.957V82.0049C71.0849 80.6436 71.6256 79.3382 72.5882 78.3756C73.5507 77.4131 74.8562 76.8723 76.2174 76.8723ZM108.723 54.6314C108.723 53.2702 108.183 51.9647 107.22 51.0022C106.258 50.0396 104.952 49.4989 103.591 49.4989C102.23 49.4989 100.924 50.0396 99.9616 51.0022C98.9991 51.9647 98.4584 53.2702 98.4584 54.6314V105.957C98.4584 107.318 98.9991 108.623 99.9616 109.586C100.924 110.548 102.23 111.089 103.591 111.089C104.952 111.089 106.258 110.548 107.22 109.586C108.183 108.623 108.723 107.318 108.723 105.957V54.6314Z" fill="#AAD999"/>
</svg>
