<svg width="130" height="124" viewBox="0 0 130 124" fill="none" xmlns="http://www.w3.org/2000/svg">
<g clip-path="url(#clip0_101_173)">
<path d="M65 124C47.7609 124 31.2279 117.468 19.0381 105.841C6.84819 94.2134 0 78.4434 0 62C0 45.5566 6.84819 29.7866 19.0381 18.1594C31.2279 6.53212 47.7609 0 65 0C82.2391 0 98.7721 6.53212 110.962 18.1594C123.152 29.7866 130 45.5566 130 62C130 78.4434 123.152 94.2134 110.962 105.841C98.7721 117.468 82.2391 124 65 124ZM42.25 55.8C44.8359 55.8 47.3158 54.8202 49.1443 53.0761C50.9728 51.332 52 48.9665 52 46.5C52 44.0335 50.9728 41.668 49.1443 39.9239C47.3158 38.1798 44.8359 37.2 42.25 37.2C39.6641 37.2 37.1842 38.1798 35.3557 39.9239C33.5272 41.668 32.5 44.0335 32.5 46.5C32.5 48.9665 33.5272 51.332 35.3557 53.0761C37.1842 54.8202 39.6641 55.8 42.25 55.8ZM87.75 55.8C90.3359 55.8 92.8158 54.8202 94.6443 53.0761C96.4728 51.332 97.5 48.9665 97.5 46.5C97.5 44.0335 96.4728 41.668 94.6443 39.9239C92.8158 38.1798 90.3359 37.2 87.75 37.2C85.1641 37.2 82.6842 38.1798 80.8557 39.9239C79.0272 41.668 78 44.0335 78 46.5C78 48.9665 79.0272 51.332 80.8557 53.0761C82.6842 54.8202 85.1641 55.8 87.75 55.8ZM101.79 74.4H28.21C30.8898 81.6663 35.8683 87.9599 42.4582 92.412C49.0482 96.8642 56.9245 99.2553 65 99.2553C73.0755 99.2553 80.9518 96.8642 87.5418 92.412C94.1317 87.9599 99.1102 81.6663 101.79 74.4Z" fill="#AAD999"/>
</g>
<defs>
<clipPath id="clip0_101_173">
<rect width="130" height="124" fill="white"/>
</clipPath>
</defs>
</svg>
