<svg width="122" height="129" viewBox="0 0 122 129" fill="none" xmlns="http://www.w3.org/2000/svg">
<g clip-path="url(#clip0_100_287)">
<path d="M106.75 80.625H122V129H61V80.625H76.25V64.5H106.75V80.625ZM83.875 80.625H99.125V72.5625H83.875V80.625ZM114.375 104.813H106.75V112.875H99.125V104.813H83.875V112.875H76.25V104.813H68.625V120.938H114.375V104.813ZM68.625 88.6875V96.75H114.375V88.6875H68.625ZM53.375 56.4375C53.375 60.3428 52.5609 63.9961 50.9326 67.3975C49.3044 70.7988 46.9811 73.6543 43.9629 75.9639C45.75 76.9297 47.4378 78.0425 49.0264 79.3023C50.6149 80.562 52.0645 81.9688 53.375 83.5225V104.813C53.375 101.495 52.7793 98.3667 51.5879 95.4273C50.3965 92.4878 48.7682 89.9263 46.7031 87.7427C44.638 85.5591 42.1956 83.8164 39.376 82.5147C36.5563 81.2129 33.5977 80.583 30.5 80.625C27.3229 80.625 24.3643 81.2549 21.624 82.5147C18.8838 83.7744 16.4613 85.4961 14.3564 87.6797C12.2516 89.8633 10.6035 92.4458 9.41211 95.4273C8.2207 98.4087 7.625 101.537 7.625 104.813H0C0 101.747 0.397135 98.7866 1.19141 95.9312C1.98568 93.0757 3.11751 90.3672 4.58691 87.8057C6.05632 85.2441 7.86328 82.9766 10.0078 81.0029C12.1523 79.0293 14.4954 77.3286 17.0371 75.9009C14.0586 73.6333 11.7552 70.7988 10.127 67.3975C8.4987 63.9961 7.66471 60.3428 7.625 56.4375C7.625 53.1201 8.2207 49.9917 9.41211 47.0523C10.6035 44.1128 12.2318 41.5513 14.2969 39.3677C16.362 37.1841 18.7845 35.4414 21.5645 34.1397C24.3444 32.8379 27.3229 32.208 30.5 32.25C33.3594 32.25 36.0798 32.7749 38.6611 33.8247C41.2425 34.8745 43.6055 36.4282 45.75 38.4858C47.0208 37.2681 48.4307 36.1973 49.9795 35.2734C48.6292 33.8037 47.5967 32.103 46.8818 30.1714C46.167 28.2397 45.7897 26.2451 45.75 24.1875C45.75 21.9619 46.1471 19.8833 46.9414 17.9517C47.7357 16.02 48.8278 14.2983 50.2178 12.7866C51.6077 11.2749 53.2161 10.1201 55.043 9.32227C56.8698 8.52441 58.8555 8.10449 61 8.0625C63.1048 8.0625 65.0706 8.48242 66.8975 9.32227C68.7243 10.1621 70.3525 11.3169 71.7822 12.7866C73.2119 14.2563 74.304 15.957 75.0586 17.8887C75.8132 19.8203 76.2103 21.9199 76.25 24.1875C76.25 26.2451 75.8926 28.2397 75.1777 30.1714C74.4629 32.103 73.4105 33.8037 72.0205 35.2734C75.3167 37.2051 77.9974 39.8086 80.0625 43.084C82.1276 39.8086 84.8083 37.2051 88.1045 35.2734C86.7542 33.8037 85.7217 32.103 85.0068 30.1714C84.292 28.2397 83.9147 26.2451 83.875 24.1875C83.875 21.9619 84.2721 19.8833 85.0664 17.9517C85.8607 16.02 86.9528 14.2983 88.3428 12.7866C89.7327 11.2749 91.3411 10.1201 93.168 9.32227C94.9948 8.52441 96.9805 8.10449 99.125 8.0625C101.23 8.0625 103.196 8.48242 105.022 9.32227C106.849 10.1621 108.478 11.3169 109.907 12.7866C111.337 14.2563 112.429 15.957 113.184 17.8887C113.938 19.8203 114.335 21.9199 114.375 24.1875C114.375 26.2451 114.018 28.2397 113.303 30.1714C112.588 32.103 111.535 33.8037 110.146 35.2734C111.972 36.3232 113.62 37.604 115.09 39.1157C116.559 40.6274 117.79 42.2861 118.783 44.0918C119.776 45.8975 120.57 47.8711 121.166 50.0127C121.762 52.1543 122.04 54.2959 122 56.4375H114.375C114.375 54.2119 113.978 52.1333 113.184 50.2017C112.389 48.27 111.297 46.5483 109.907 45.0366C108.517 43.5249 106.909 42.3701 105.082 41.5723C103.255 40.7744 101.27 40.3545 99.125 40.3125C97.0202 40.3125 95.0544 40.7324 93.2275 41.5723C91.4007 42.4121 89.7725 43.5669 88.3428 45.0366C86.9131 46.5064 85.821 48.207 85.0664 50.1387C84.3118 52.0703 83.9147 54.1699 83.875 56.4375H76.25C76.25 54.2119 75.8529 52.1333 75.0586 50.2017C74.2643 48.27 73.1722 46.5483 71.7822 45.0366C70.3923 43.5249 68.7839 42.3701 66.957 41.5723C65.1302 40.7744 63.1445 40.3545 61 40.3125C59.054 40.3125 57.1676 40.6904 55.3408 41.4463C53.514 42.2022 51.9056 43.3149 50.5156 44.7847C51.4688 46.5483 52.1836 48.417 52.6602 50.3906C53.1367 52.3643 53.375 54.3799 53.375 56.4375ZM99.125 16.125C98.0527 16.125 97.0599 16.335 96.1465 16.7549C95.2331 17.1748 94.4388 17.7417 93.7637 18.4556C93.0885 19.1694 92.5326 20.0303 92.0957 21.0381C91.6589 22.0459 91.4603 23.0957 91.5 24.1875C91.5 25.3213 91.6986 26.3711 92.0957 27.3369C92.4928 28.3027 93.029 29.1426 93.7041 29.8564C94.3792 30.5703 95.1934 31.1582 96.1465 31.6201C97.0996 32.082 98.0924 32.292 99.125 32.25C100.197 32.25 101.19 32.04 102.104 31.6201C103.017 31.2002 103.811 30.6333 104.486 29.9194C105.161 29.2056 105.717 28.3447 106.154 27.3369C106.591 26.3291 106.79 25.2793 106.75 24.1875C106.75 23.0537 106.551 22.0039 106.154 21.0381C105.757 20.0723 105.221 19.2324 104.546 18.5186C103.871 17.8047 103.057 17.2168 102.104 16.7549C101.15 16.293 100.158 16.083 99.125 16.125ZM61 16.125C59.9277 16.125 58.9349 16.335 58.0215 16.7549C57.1081 17.1748 56.3138 17.7417 55.6387 18.4556C54.9635 19.1694 54.4076 20.0303 53.9707 21.0381C53.5339 22.0459 53.3353 23.0957 53.375 24.1875C53.375 25.3213 53.5736 26.3711 53.9707 27.3369C54.3678 28.3027 54.904 29.1426 55.5791 29.8564C56.2542 30.5703 57.0684 31.1582 58.0215 31.6201C58.9746 32.082 59.9674 32.292 61 32.25C62.0723 32.25 63.0651 32.04 63.9785 31.6201C64.8919 31.2002 65.6862 30.6333 66.3613 29.9194C67.0365 29.2056 67.5924 28.3447 68.0293 27.3369C68.4661 26.3291 68.6647 25.2793 68.625 24.1875C68.625 23.0537 68.4264 22.0039 68.0293 21.0381C67.6322 20.0723 67.096 19.2324 66.4209 18.5186C65.7458 17.8047 64.9316 17.2168 63.9785 16.7549C63.0254 16.293 62.0326 16.083 61 16.125ZM30.5 72.5625C32.6048 72.5625 34.5706 72.1426 36.3975 71.3027C38.2243 70.4629 39.8525 69.3081 41.2822 67.8384C42.7119 66.3687 43.804 64.668 44.5586 62.7363C45.3132 60.8047 45.7103 58.7051 45.75 56.4375C45.75 54.2119 45.3529 52.1333 44.5586 50.2017C43.7643 48.27 42.6722 46.5483 41.2822 45.0366C39.8923 43.5249 38.2839 42.3701 36.457 41.5723C34.6302 40.7744 32.6445 40.3545 30.5 40.3125C28.3952 40.3125 26.4294 40.7324 24.6025 41.5723C22.7757 42.4121 21.1475 43.5669 19.7178 45.0366C18.2881 46.5064 17.196 48.207 16.4414 50.1387C15.6868 52.0703 15.2897 54.1699 15.25 56.4375C15.25 58.6631 15.6471 60.7417 16.4414 62.6733C17.2357 64.605 18.3278 66.3267 19.7178 67.8384C21.1077 69.3501 22.7161 70.5049 24.543 71.3027C26.3698 72.1006 28.3555 72.5205 30.5 72.5625Z" fill="#AAD999"/>
</g>
<defs>
<clipPath id="clip0_100_287">
<rect width="122" height="129" fill="white"/>
</clipPath>
</defs>
</svg>
