<svg width="115" height="115" viewBox="0 0 115 115" fill="none" xmlns="http://www.w3.org/2000/svg">
<path d="M94.3 2.29999H20.7C15.64 2.29999 11.5 6.43999 11.5 11.5V103.5C11.5 108.56 15.64 112.7 20.7 112.7H94.3C99.36 112.7 103.5 108.56 103.5 103.5V11.5C103.5 6.43999 99.36 2.29999 94.3 2.29999ZM39.1 94.3C39.1 96.83 37.03 98.9 34.5 98.9H25.3C22.77 98.9 20.7 96.83 20.7 94.3V92C20.7 89.47 22.77 87.4 25.3 87.4H34.5C37.03 87.4 39.1 89.47 39.1 92V94.3ZM39.1 75.9C39.1 78.43 37.03 80.5 34.5 80.5H25.3C22.77 80.5 20.7 78.43 20.7 75.9V73.6C20.7 71.07 22.77 69 25.3 69H34.5C37.03 69 39.1 71.07 39.1 73.6V75.9ZM39.1 57.5C39.1 60.03 37.03 62.1 34.5 62.1H25.3C22.77 62.1 20.7 60.03 20.7 57.5V55.2C20.7 52.67 22.77 50.6 25.3 50.6H34.5C37.03 50.6 39.1 52.67 39.1 55.2V57.5ZM66.7 94.3C66.7 96.83 64.63 98.9 62.1 98.9H52.9C50.37 98.9 48.3 96.83 48.3 94.3V92C48.3 89.47 50.37 87.4 52.9 87.4H62.1C64.63 87.4 66.7 89.47 66.7 92V94.3ZM66.7 75.9C66.7 78.43 64.63 80.5 62.1 80.5H52.9C50.37 80.5 48.3 78.43 48.3 75.9V73.6C48.3 71.07 50.37 69 52.9 69H62.1C64.63 69 66.7 71.07 66.7 73.6V75.9ZM66.7 57.5C66.7 60.03 64.63 62.1 62.1 62.1H52.9C50.37 62.1 48.3 60.03 48.3 57.5V55.2C48.3 52.67 50.37 50.6 52.9 50.6H62.1C64.63 50.6 66.7 52.67 66.7 55.2V57.5ZM94.3 94.3C94.3 96.83 92.23 98.9 89.7 98.9H80.5C77.97 98.9 75.9 96.83 75.9 94.3V92C75.9 89.47 77.97 87.4 80.5 87.4H89.7C92.23 87.4 94.3 89.47 94.3 92V94.3ZM94.3 75.9C94.3 78.43 92.23 80.5 89.7 80.5H80.5C77.97 80.5 75.9 78.43 75.9 75.9V73.6C75.9 71.07 77.97 69 80.5 69H89.7C92.23 69 94.3 71.07 94.3 73.6V75.9ZM94.3 57.5C94.3 60.03 92.23 62.1 89.7 62.1H80.5C77.97 62.1 75.9 60.03 75.9 57.5V55.2C75.9 52.67 77.97 50.6 80.5 50.6H89.7C92.23 50.6 94.3 52.67 94.3 55.2V57.5ZM94.3 36.8C94.3 39.33 92.23 41.4 89.7 41.4H25.3C22.77 41.4 20.7 39.33 20.7 36.8V18.4C20.7 15.87 22.77 13.8 25.3 13.8H89.7C92.23 13.8 94.3 15.87 94.3 18.4V36.8Z" fill="#AAD999"/>
</svg>
