<svg width="122" height="113" viewBox="0 0 122 113" fill="none" xmlns="http://www.w3.org/2000/svg">
<path fill-rule="evenodd" clip-rule="evenodd" d="M111.833 56.5C111.833 82.5042 89.0751 103.583 60.9999 103.583C52.8666 103.583 45.1806 101.813 38.3689 98.6679C36.5695 97.8065 34.4924 97.5838 32.5281 98.0417L21.2126 100.848C20.0926 101.125 18.9137 101.124 17.7942 100.845C16.6748 100.567 15.6541 100.02 14.8347 99.2606C14.0153 98.5012 13.4259 97.5555 13.1259 96.5184C12.8258 95.4813 12.8255 94.3894 13.1251 93.3522L16.1497 82.8714C16.6416 81.053 16.3994 79.1308 15.4685 77.4663C11.9693 70.953 10.1541 63.7751 10.1666 56.5C10.1666 30.4959 32.9247 9.41672 60.9999 9.41672C89.0751 9.41672 111.833 30.4959 111.833 56.5ZM60.9999 34.1355C62.011 34.1355 62.9808 34.5075 63.6957 35.1697C64.4107 35.832 64.8124 36.7302 64.8124 37.6667V37.7138C70.3481 39.0086 74.9791 43.0483 74.9791 48.6513C74.9791 49.5878 74.5774 50.486 73.8624 51.1482C73.1474 51.8105 72.1777 52.1825 71.1666 52.1825C70.1554 52.1825 69.1857 51.8105 68.4707 51.1482C67.7557 50.486 67.3541 49.5878 67.3541 48.6513C67.3541 46.8433 65.1886 44.3384 60.9999 44.3384C56.8112 44.3384 54.6457 46.8433 54.6457 48.6513C54.6457 50.4593 56.8112 52.9688 60.9999 52.9688C68.0403 52.9688 74.9791 57.4888 74.9791 64.3488C74.9791 69.9518 70.3481 73.9962 64.8124 75.2863V75.3334C64.8124 76.2699 64.4107 77.1681 63.6957 77.8304C62.9808 78.4926 62.011 78.8646 60.9999 78.8646C59.9888 78.8646 59.019 78.4926 58.3041 77.8304C57.5891 77.1681 57.1874 76.2699 57.1874 75.3334V75.2863C51.6516 73.9962 47.0207 69.9518 47.0207 64.3488C47.0207 63.4123 47.4224 62.5141 48.1374 61.8519C48.8524 61.1896 49.8221 60.8176 50.8332 60.8176C51.8444 60.8176 52.8141 61.1896 53.5291 61.8519C54.2441 62.5141 54.6457 63.4123 54.6457 64.3488C54.6457 66.1568 56.8112 68.6617 60.9999 68.6617C65.1886 68.6617 67.3541 66.1568 67.3541 64.3488C67.3541 62.5408 65.1886 60.0313 60.9999 60.0313C53.9595 60.0313 47.0207 55.5113 47.0207 48.6513C47.0207 43.0483 51.6516 39.0086 57.1874 37.7138V37.6667C57.1874 36.7302 57.5891 35.832 58.3041 35.1697C59.019 34.5075 59.9888 34.1355 60.9999 34.1355Z" fill="#AAD999"/>
</svg>
