<svg width="56" height="56" viewBox="0 0 56 56" fill="none" xmlns="http://www.w3.org/2000/svg">
<path d="M35.1634 26.25L33.0634 28.3967C31.3834 30.0767 30.3334 31.5 30.3334 35H25.6667V33.8333C25.6667 31.2433 26.7167 28.91 28.3967 27.23L31.2901 24.29C32.1534 23.45 32.6667 22.2833 32.6667 21C32.6667 19.7623 32.1751 18.5753 31.2999 17.7002C30.4247 16.825 29.2378 16.3333 28.0001 16.3333C26.7624 16.3333 25.5754 16.825 24.7003 17.7002C23.8251 18.5753 23.3334 19.7623 23.3334 21H18.6667C18.6667 18.5247 19.6501 16.1507 21.4004 14.4003C23.1508 12.65 25.5247 11.6667 28.0001 11.6667C30.4754 11.6667 32.8494 12.65 34.5997 14.4003C36.3501 16.1507 37.3334 18.5247 37.3334 21C37.3301 22.9676 36.5502 24.8543 35.1634 26.25ZM30.3334 44.3333H25.6667V39.6667H30.3334M28.0001 4.66667C24.9359 4.66667 21.9017 5.27021 19.0708 6.44282C16.2399 7.61543 13.6676 9.33415 11.5009 11.5008C7.12507 15.8767 4.66675 21.8116 4.66675 28C4.66675 34.1884 7.12507 40.1233 11.5009 44.4992C13.6676 46.6659 16.2399 48.3846 19.0708 49.5572C21.9017 50.7298 24.9359 51.3333 28.0001 51.3333C34.1885 51.3333 40.1234 48.875 44.4992 44.4992C48.8751 40.1233 51.3334 34.1884 51.3334 28C51.3334 15.0967 40.8334 4.66667 28.0001 4.66667Z" fill="white"/>
</svg>
