<svg width="50" height="37" viewBox="0 0 50 37" fill="none" xmlns="http://www.w3.org/2000/svg">
<path d="M12.5 27.2727C14.2803 27.2727 16.0136 27.472 17.7 27.8704C19.3864 28.2689 21.0621 28.8651 22.7273 29.6591V7.27272C21.1742 6.36363 19.5265 5.68182 17.7841 5.22727C16.0417 4.77273 14.2803 4.54545 12.5 4.54545C11.1364 4.54545 9.78181 4.67803 8.43636 4.94318C7.09091 5.20833 5.79394 5.60606 4.54545 6.13636V28.6364C5.87121 28.1818 7.18788 27.8409 8.49545 27.6136C9.80303 27.3864 11.1379 27.2727 12.5 27.2727ZM27.2727 29.6591C28.9394 28.8636 30.6151 28.2667 32.3 27.8682C33.9848 27.4697 35.7182 27.2712 37.5 27.2727C38.8636 27.2727 40.1992 27.3864 41.5068 27.6136C42.8144 27.8409 44.1303 28.1818 45.4545 28.6364V6.13636C44.2045 5.60606 42.9068 5.20833 41.5614 4.94318C40.2159 4.67803 38.8621 4.54545 37.5 4.54545C35.7197 4.54545 33.9583 4.77273 32.2159 5.22727C30.4735 5.68182 28.8257 6.36363 27.2727 7.27272V29.6591ZM25 36.3636C23.1818 34.9242 21.2121 33.8068 19.0909 33.0114C16.9697 32.2159 14.7727 31.8182 12.5 31.8182C10.9091 31.8182 9.34621 32.0265 7.81136 32.4432C6.27651 32.8598 4.80909 33.447 3.40909 34.2045C2.61364 34.6212 1.84697 34.6023 1.10909 34.1477C0.371212 33.6932 0.00151515 33.0303 0 32.1591V4.77273C0 4.35606 0.104545 3.95833 0.313636 3.57954C0.522727 3.20076 0.834848 2.91667 1.25 2.72727C2.99242 1.81818 4.8106 1.13636 6.70454 0.681818C8.59848 0.227273 10.5303 0 12.5 0C14.697 0 16.847 0.284091 18.95 0.852272C21.053 1.42045 23.0697 2.27273 25 3.40909C26.9318 2.27273 28.9492 1.42045 31.0523 0.852272C33.1553 0.284091 35.3045 0 37.5 0C39.4697 0 41.4015 0.227273 43.2954 0.681818C45.1894 1.13636 47.0076 1.81818 48.75 2.72727C49.1667 2.91667 49.4795 3.20076 49.6886 3.57954C49.8977 3.95833 50.0015 4.35606 50 4.77273V32.1591C50 33.0303 49.631 33.6932 48.8932 34.1477C48.1553 34.6023 47.3879 34.6212 46.5909 34.2045C45.1894 33.447 43.722 32.8598 42.1886 32.4432C40.6553 32.0265 39.0924 31.8182 37.5 31.8182C35.2273 31.8182 33.0303 32.2159 30.9091 33.0114C28.7879 33.8068 26.8182 34.9242 25 36.3636Z" fill="#212121"/>
</svg>
