<svg width="44" height="44" viewBox="0 0 44 44" fill="none" xmlns="http://www.w3.org/2000/svg">
<path d="M41.8 26.4C41.2165 26.4 40.6569 26.6318 40.2444 27.0444C39.8318 27.4569 39.6 28.0165 39.6 28.6V37.4C39.6 37.9835 39.3682 38.5431 38.9556 38.9556C38.5431 39.3682 37.9835 39.6 37.4 39.6H6.6C6.01652 39.6 5.45695 39.3682 5.04437 38.9556C4.63179 38.5431 4.4 37.9835 4.4 37.4V28.6C4.4 28.0165 4.16822 27.4569 3.75564 27.0444C3.34306 26.6318 2.78348 26.4 2.2 26.4C1.61652 26.4 1.05695 26.6318 0.644365 27.0444C0.231785 27.4569 0 28.0165 0 28.6V37.4C0 39.1504 0.695355 40.8292 1.9331 42.0669C3.17084 43.3046 4.84957 44 6.6 44H37.4C39.1504 44 40.8292 43.3046 42.0669 42.0669C43.3046 40.8292 44 39.1504 44 37.4V28.6C44 28.0165 43.7682 27.4569 43.3556 27.0444C42.9431 26.6318 42.3835 26.4 41.8 26.4ZM20.438 30.162C20.6472 30.3623 20.8939 30.5193 21.164 30.624C21.4273 30.7404 21.7121 30.8005 22 30.8005C22.2879 30.8005 22.5727 30.7404 22.836 30.624C23.1061 30.5193 23.3528 30.3623 23.562 30.162L32.362 21.362C32.7763 20.9477 33.009 20.3859 33.009 19.8C33.009 19.2141 32.7763 18.6523 32.362 18.238C31.9477 17.8237 31.3859 17.591 30.8 17.591C30.2141 17.591 29.6523 17.8237 29.238 18.238L24.2 23.298V2.2C24.2 1.61652 23.9682 1.05695 23.5556 0.644365C23.1431 0.231785 22.5835 0 22 0C21.4165 0 20.8569 0.231785 20.4444 0.644365C20.0318 1.05695 19.8 1.61652 19.8 2.2V23.298L14.762 18.238C14.5569 18.0329 14.3134 17.8702 14.0454 17.7591C13.7773 17.6481 13.4901 17.591 13.2 17.591C12.9099 17.591 12.6227 17.6481 12.3547 17.7591C12.0866 17.8702 11.8431 18.0329 11.638 18.238C11.4329 18.4431 11.2702 18.6866 11.1591 18.9547C11.0481 19.2227 10.991 19.5099 10.991 19.8C10.991 20.0901 11.0481 20.3773 11.1591 20.6453C11.2702 20.9134 11.4329 21.1569 11.638 21.362L20.438 30.162Z" fill="#212121"/>
</svg>
