<svg width="45" height="45" viewBox="0 0 45 45" fill="none" xmlns="http://www.w3.org/2000/svg">
<path d="M42.75 6.75L42.75 11.25C42.75 11.8467 42.5129 12.419 42.091 12.841C41.669 13.2629 41.0967 13.5 40.5 13.5L2.268 13.5L2.268 4.5L40.5 4.5C41.0967 4.5 41.669 4.73705 42.091 5.15901C42.5129 5.58096 42.75 6.15326 42.75 6.75ZM29.25 20.25L29.25 24.75C29.25 25.3467 29.0129 25.919 28.591 26.341C28.169 26.7629 27.5967 27 27 27L2.268 27L2.268 18L27 18C27.5967 18 28.169 18.2371 28.591 18.659C29.0129 19.081 29.25 19.6533 29.25 20.25ZM15.75 33.75L15.75 38.25C15.75 38.8467 15.513 39.419 15.091 39.841C14.669 40.2629 14.0967 40.5 13.5 40.5L2.26801 40.5L2.268 31.5L13.5 31.5C14.0967 31.5 14.669 31.7371 15.091 32.159C15.513 32.581 15.75 33.1533 15.75 33.75Z" fill="white"/>
</svg>
