<svg width="48" height="48" viewBox="0 0 48 48" fill="none" xmlns="http://www.w3.org/2000/svg">
<path d="M20.125 45.3125C20.125 45.8264 19.9209 46.3192 19.5575 46.6825C19.1942 47.0459 18.7014 47.25 18.1875 47.25H4.625C3.59729 47.25 2.61166 46.8417 1.88496 46.115C1.15826 45.3883 0.75 44.4027 0.75 43.375V4.625C0.75 3.59729 1.15826 2.61166 1.88496 1.88496C2.61166 1.15826 3.59729 0.75 4.625 0.75H18.1875C18.7014 0.75 19.1942 0.954129 19.5575 1.31748C19.9209 1.68083 20.125 2.17364 20.125 2.6875C20.125 3.20136 19.9209 3.69417 19.5575 4.05752C19.1942 4.42087 18.7014 4.625 18.1875 4.625H4.625V43.375H18.1875C18.7014 43.375 19.1942 43.5791 19.5575 43.9425C19.9209 44.3058 20.125 44.7986 20.125 45.3125ZM46.6833 22.6292L36.9958 12.9417C36.6322 12.5782 36.1391 12.3739 35.625 12.3739C35.1109 12.3739 34.6178 12.5782 34.2542 12.9417C33.8907 13.3053 33.6864 13.7984 33.6864 14.3125C33.6864 14.8266 33.8907 15.3197 34.2542 15.6833L40.6359 22.0625H18.1875C17.6736 22.0625 17.1808 22.2666 16.8175 22.63C16.4541 22.9933 16.25 23.4861 16.25 24C16.25 24.5139 16.4541 25.0067 16.8175 25.37C17.1808 25.7334 17.6736 25.9375 18.1875 25.9375H40.6359L34.2542 32.3167C33.8907 32.6803 33.6864 33.1734 33.6864 33.6875C33.6864 34.2016 33.8907 34.6947 34.2542 35.0583C34.6178 35.4218 35.1109 35.6261 35.625 35.6261C36.1391 35.6261 36.6322 35.4218 36.9958 35.0583L46.6833 25.3708C46.8634 25.1908 47.0063 24.9772 47.1038 24.7419C47.2013 24.5067 47.2515 24.2546 47.2515 24C47.2515 23.7454 47.2013 23.4933 47.1038 23.2581C47.0063 23.0228 46.8634 22.8092 46.6833 22.6292Z" fill="white"/>
</svg>
