<svg width="104" height="104" viewBox="0 0 104 104" fill="none" xmlns="http://www.w3.org/2000/svg">
<path d="M46.8334 77.8334H57.1667V57.1667H77.8334V46.8333H57.1667V26.1667H46.8334V46.8333H26.1667V57.1667H46.8334V77.8334ZM52 103.667C44.8528 103.667 38.1362 102.31 31.85 99.5953C25.5639 96.8811 20.0959 93.2007 15.4459 88.5542C10.7959 83.9042 7.11549 78.4361 4.40471 72.15C1.69393 65.8639 0.336818 59.1472 0.333374 52C0.333374 44.8528 1.69049 38.1361 4.40471 31.85C7.11893 25.5639 10.7993 20.0958 15.4459 15.4458C20.0959 10.7958 25.5639 7.11546 31.85 4.40468C38.1362 1.6939 44.8528 0.336788 52 0.333344C59.1473 0.333344 65.8639 1.69046 72.15 4.40468C78.4362 7.1189 83.9042 10.7993 88.5542 15.4458C93.2042 20.0958 96.8863 25.5639 99.6005 31.85C102.315 38.1361 103.67 44.8528 103.667 52C103.667 59.1472 102.31 65.8639 99.5954 72.15C96.8812 78.4361 93.2008 83.9042 88.5542 88.5542C83.9042 93.2042 78.4362 96.8863 72.15 99.6005C65.8639 102.315 59.1473 103.67 52 103.667Z" fill="#25A4A9"/>
</svg>
