<svg width="46" height="54" viewBox="0 0 46 54" fill="none" xmlns="http://www.w3.org/2000/svg">
<path d="M3.28511 53.9884V45.3472C2.43515 44.4028 1.75046 43.3516 1.23103 42.1938C0.711615 41.036 0.451904 39.7733 0.451904 38.4058V11.4904C0.451904 7.57114 2.26988 4.70205 5.90582 2.88314C9.54176 1.06422 15.279 0.155707 23.1175 0.157596C31.2394 0.157596 37.0474 1.03117 40.5417 2.77831C44.036 4.52545 45.7831 7.42948 45.7831 11.4904V38.4058C45.7831 39.7752 45.5234 41.0388 45.004 42.1966C44.4846 43.3545 43.7999 44.4046 42.9499 45.3472V53.9884H34.4503V48.322H11.7847V53.9884H3.28511ZM6.11831 22.8232H40.1167V14.3236H6.11831V22.8232ZM13.2013 39.8224C14.3818 39.8224 15.3857 39.4088 16.213 38.5815C17.0403 37.7542 17.453 36.7512 17.4511 35.5726C17.4511 34.3921 17.0375 33.3882 16.2102 32.5609C15.3829 31.7336 14.3799 31.3209 13.2013 31.3228C12.0208 31.3228 11.0169 31.7365 10.1896 32.5638C9.36232 33.391 8.94962 34.394 8.95151 35.5726C8.95151 36.7531 9.36516 37.757 10.1925 38.5843C11.0197 39.4116 12.0227 39.8243 13.2013 39.8224ZM33.0337 39.8224C34.2142 39.8224 35.2181 39.4088 36.0454 38.5815C36.8727 37.7542 37.2854 36.7512 37.2835 35.5726C37.2835 34.3921 36.8699 33.3882 36.0426 32.5609C35.2153 31.7336 34.2123 31.3209 33.0337 31.3228C31.8532 31.3228 30.8493 31.7365 30.022 32.5638C29.1947 33.391 28.782 34.394 28.7839 35.5726C28.7839 36.7531 29.1976 37.757 30.0249 38.5843C30.8522 39.4116 31.8551 39.8243 33.0337 39.8224Z" fill="#36B0B5"/>
</svg>
