<svg width="60" height="60" viewBox="0 0 60 60" fill="none" xmlns="http://www.w3.org/2000/svg">
<path d="M17.1267 33.7434C17.7809 33.9026 18.4509 33.9881 19.1241 33.9984C20.8121 33.998 22.4616 33.495 23.8626 32.5535L30.7048 38.652C30.1628 39.6812 29.8447 40.8135 29.7715 41.9744C29.6982 43.1354 29.8715 44.2987 30.2798 45.3879C30.7088 46.622 31.4164 47.7407 32.3479 48.6569C33.2793 49.5731 34.4095 50.2623 35.6505 50.6709C36.8915 51.0794 38.21 51.1964 39.5036 51.0126C40.7972 50.8289 42.0309 50.3494 43.1091 49.6115C44.1873 48.8735 45.0808 47.8969 45.7203 46.7576C46.3598 45.6182 46.728 44.3467 46.7963 43.042C46.8647 41.7372 46.6313 40.4343 46.1143 39.2344C45.5973 38.0344 44.8107 36.9699 43.8155 36.1233L49.2127 25.3076C50.2662 25.5452 51.3567 25.5679 52.4192 25.3744C53.4816 25.1809 54.4941 24.7751 55.3962 24.1814C56.928 23.2465 58.1247 21.8508 58.8147 20.1941C59.5047 18.5375 59.6526 16.7049 59.2373 14.9591C58.8219 13.2132 57.8647 11.6436 56.5026 10.4751C55.1405 9.30662 53.4436 8.59924 51.6548 8.45431C49.8661 8.30938 48.0774 8.73434 46.545 9.6683C45.0126 10.6023 43.8151 11.9973 43.1241 13.6535C42.4331 15.3098 42.2841 17.1422 42.6984 18.8883C43.1127 20.6344 44.069 22.2046 45.4304 23.3739L40.0331 34.1897C39.447 34.0608 38.8484 33.9967 38.2482 33.9984C36.5603 33.9989 34.9107 34.5019 33.5097 35.4434L26.6675 29.3449C27.2095 28.3156 27.5276 27.1833 27.6009 26.0224C27.6741 24.8615 27.5009 23.6982 27.0925 22.6089C26.6667 21.3838 25.9662 20.2723 25.0446 19.3597C24.123 18.447 23.0047 17.7574 21.7755 17.3436C20.5462 16.9298 19.2386 16.8028 17.9527 16.9724C16.6668 17.1419 15.4367 17.6036 14.3567 18.3219C13.2768 19.0402 12.3755 19.9961 11.722 21.1165C11.0685 22.2369 10.68 23.4919 10.5864 24.7856C10.4928 26.0792 10.6965 27.3772 11.1819 28.5799C11.6673 29.7827 12.4216 30.8585 13.3869 31.7248L4.2498 48.8727V0H0V55.2474C0 56.3745 0.447746 57.4555 1.24474 58.2525C2.04173 59.0495 3.12268 59.4972 4.2498 59.4972H59.4972V55.2474H5.67349L17.1267 33.7434ZM50.9976 12.7494C51.8382 12.7494 52.6598 12.9987 53.3587 13.4656C54.0576 13.9326 54.6023 14.5963 54.9239 15.3729C55.2456 16.1494 55.3297 17.0039 55.1658 17.8283C55.0018 18.6527 54.597 19.4099 54.0027 20.0043C53.4083 20.5986 52.6511 21.0034 51.8267 21.1674C51.0023 21.3313 50.1478 21.2472 49.3713 20.9255C48.5947 20.6039 47.931 20.0591 47.464 19.3603C46.9971 18.6614 46.7478 17.8397 46.7478 16.9992C46.7478 15.8721 47.1956 14.7911 47.9926 13.9941C48.7896 13.1972 49.8705 12.7494 50.9976 12.7494ZM42.498 42.498C42.498 43.3386 42.2488 44.1602 41.7818 44.8591C41.3148 45.558 40.6511 46.1027 39.8745 46.4243C39.098 46.746 38.2435 46.8301 37.4191 46.6662C36.5947 46.5022 35.8375 46.0974 35.2432 45.5031C34.6488 44.9087 34.2441 44.1515 34.0801 43.3271C33.9161 42.5027 34.0003 41.6482 34.3219 40.8717C34.6436 40.0951 35.1883 39.4314 35.8872 38.9644C36.586 38.4975 37.4077 38.2482 38.2482 38.2482C39.3753 38.2482 40.4563 38.696 41.2533 39.493C42.0503 40.29 42.498 41.3709 42.498 42.498ZM19.1241 21.249C19.9646 21.249 20.7863 21.4983 21.4852 21.9652C22.184 22.4322 22.7288 23.0959 23.0504 23.8725C23.3721 24.649 23.4562 25.5035 23.2923 26.3279C23.1283 27.1523 22.7235 27.9095 22.1292 28.5039C21.5348 29.0982 20.7776 29.503 19.9532 29.667C19.1288 29.8309 18.2743 29.7468 17.4978 29.4251C16.7212 29.1035 16.0575 28.5588 15.5905 27.8599C15.1236 27.161 14.8743 26.3393 14.8743 25.4988C14.8743 24.3717 15.3221 23.2907 16.119 22.4937C16.916 21.6968 17.997 21.249 19.1241 21.249Z" fill="#36B0B5"/>
</svg>
