<svg width="52" height="55" viewBox="0 0 52 55" fill="none" xmlns="http://www.w3.org/2000/svg">
<path d="M37.4619 2.54988C37.4619 1.87361 37.7305 1.22504 38.2087 0.746843C38.6869 0.268647 39.3355 0 40.0117 0H48.5113C49.1876 0 49.8362 0.268647 50.3144 0.746843C50.7926 1.22504 51.0612 1.87361 51.0612 2.54988V11.0495C51.0612 11.7258 50.7926 12.3743 50.3144 12.8525C49.8362 13.3307 49.1876 13.5994 48.5113 13.5994C47.8351 13.5994 47.1865 13.3307 46.7083 12.8525C46.2301 12.3743 45.9615 11.7258 45.9615 11.0495V8.70359L30.7642 23.9009C30.2861 24.3784 29.638 24.6466 28.9623 24.6466C28.2865 24.6466 27.6384 24.3784 27.1603 23.9009L18.7627 15.5033L4.4154 29.8506C4.18196 30.1011 3.90045 30.3021 3.58767 30.4414C3.27489 30.5808 2.93724 30.6557 2.59486 30.6618C2.25249 30.6678 1.91241 30.6048 1.5949 30.4766C1.2774 30.3484 0.988975 30.1575 0.746843 29.9153C0.50471 29.6732 0.313828 29.3848 0.185582 29.0673C0.0573369 28.7498 -0.00564395 28.4097 0.000396833 28.0673C0.00643762 27.7249 0.0813769 27.3873 0.220743 27.0745C0.360109 26.7617 0.561047 26.4802 0.811571 26.2468L16.9608 10.0975C17.4389 9.62002 18.087 9.35181 18.7627 9.35181C19.4385 9.35181 20.0865 9.62002 20.5646 10.0975L28.9623 18.4951L42.3576 5.09976H40.0117C39.3355 5.09976 38.6869 4.83112 38.2087 4.35292C37.7305 3.87472 37.4619 3.22615 37.4619 2.54988ZM2.61349 40.7981C3.28976 40.7981 3.93833 41.0667 4.41652 41.5449C4.89472 42.0231 5.16337 42.6717 5.16337 43.348V51.8476C5.16337 52.5239 4.89472 53.1724 4.41652 53.6506C3.93833 54.1288 3.28976 54.3975 2.61349 54.3975C1.93722 54.3975 1.28864 54.1288 0.810448 53.6506C0.332253 53.1724 0.0636055 52.5239 0.0636055 51.8476V43.348C0.0636055 42.6717 0.332253 42.0231 0.810448 41.5449C1.28864 41.0667 1.93722 40.7981 2.61349 40.7981ZM18.7627 33.1485C18.7627 32.4722 18.4941 31.8236 18.0159 31.3454C17.5377 30.8672 16.8891 30.5986 16.2129 30.5986C15.5366 30.5986 14.888 30.8672 14.4098 31.3454C13.9316 31.8236 13.663 32.4722 13.663 33.1485V51.8476C13.663 52.5239 13.9316 53.1724 14.4098 53.6506C14.888 54.1288 15.5366 54.3975 16.2129 54.3975C16.8891 54.3975 17.5377 54.1288 18.0159 53.6506C18.4941 53.1724 18.7627 52.5239 18.7627 51.8476V33.1485ZM29.8122 37.3983C30.4885 37.3983 31.1371 37.6669 31.6153 38.1451C32.0934 38.6233 32.3621 39.2719 32.3621 39.9481V51.8476C32.3621 52.5239 32.0934 53.1724 31.6153 53.6506C31.1371 54.1288 30.4885 54.3975 29.8122 54.3975C29.1359 54.3975 28.4874 54.1288 28.0092 53.6506C27.531 53.1724 27.2623 52.5239 27.2623 51.8476V39.9481C27.2623 39.2719 27.531 38.6233 28.0092 38.1451C28.4874 37.6669 29.1359 37.3983 29.8122 37.3983ZM45.9615 26.3488C45.9615 25.6725 45.6928 25.0239 45.2146 24.5457C44.7364 24.0675 44.0879 23.7989 43.4116 23.7989C42.7353 23.7989 42.0867 24.0675 41.6085 24.5457C41.1303 25.0239 40.8617 25.6725 40.8617 26.3488V51.8476C40.8617 52.5239 41.1303 53.1724 41.6085 53.6506C42.0867 54.1288 42.7353 54.3975 43.4116 54.3975C44.0879 54.3975 44.7364 54.1288 45.2146 53.6506C45.6928 53.1724 45.9615 52.5239 45.9615 51.8476V26.3488Z" fill="#36B0B5"/>
</svg>
