<svg width="60" height="60" viewBox="0 0 60 60" fill="none" xmlns="http://www.w3.org/2000/svg">
<path d="M51.1804 29.7477C49.6676 29.7556 48.1848 30.171 46.8881 30.9504L40.8131 24.8753L45.6854 20.0029C46.4822 19.206 46.9297 18.1252 46.9297 16.9983C46.9297 15.8714 46.4822 14.7906 45.6854 13.9937L32.936 1.24428C32.1391 0.44757 31.0583 0 29.9314 0C28.8045 0 27.7238 0.44757 26.9268 1.24428L14.1774 13.9937C13.3807 14.7906 12.9331 15.8714 12.9331 16.9983C12.9331 18.1252 13.3807 19.206 14.1774 20.0029L19.0498 24.8753L12.9747 30.9504C11.1747 29.8824 9.04665 29.5082 6.99025 29.8982C4.93386 30.2882 3.09058 31.4155 1.80655 33.0684C0.522526 34.7213 -0.113906 36.7862 0.01677 38.8751C0.147446 40.9641 1.03624 42.9335 2.51625 44.4135C3.99626 45.8935 5.96566 46.7823 8.05462 46.913C10.1436 47.0436 12.2084 46.4072 13.8613 45.1232C15.5142 43.8392 16.6415 41.9959 17.0315 39.9395C17.4215 37.8831 17.0474 35.7551 15.9793 33.955L22.0544 27.8799L26.9268 32.7523C27.19 33.0095 27.4857 33.2309 27.8065 33.411V42.4971H21.4318V59.4963H38.431V42.4971H32.0563V33.4089C32.377 33.2295 32.6728 33.0087 32.936 32.7523L37.8084 27.8799L43.8835 33.955C42.9425 35.5693 42.5612 37.4493 42.799 39.3026C43.0368 41.1559 43.8803 42.8788 45.1984 44.2032C46.5165 45.5276 48.2353 46.3793 50.0875 46.626C51.9397 46.8726 53.8215 46.5003 55.4402 45.567C57.059 44.6336 58.3239 43.1915 59.0384 41.465C59.7529 39.7385 59.8768 37.8242 59.391 36.0199C58.9051 34.2157 57.8367 32.6225 56.3519 31.4882C54.867 30.3539 53.049 29.742 51.1804 29.7477ZM12.9322 38.2473C12.9322 39.0878 12.683 39.9095 12.216 40.6084C11.749 41.3073 11.0853 41.852 10.3088 42.1736C9.5322 42.4953 8.67771 42.5794 7.85333 42.4155C7.02895 42.2515 6.2717 41.8467 5.67736 41.2524C5.08301 40.658 4.67826 39.9008 4.51428 39.0764C4.3503 38.252 4.43446 37.3975 4.75612 36.621C5.07778 35.8444 5.62248 35.1807 6.32136 34.7137C7.02024 34.2468 7.84189 33.9975 8.68242 33.9975C9.8092 33.9986 10.8895 34.4467 11.6862 35.2435C12.483 36.0402 12.9311 37.1205 12.9322 38.2473ZM34.1812 46.7469V55.2465H25.6816V46.7469H34.1812ZM29.9314 29.7477L17.182 16.9983L29.9314 4.24889L42.6808 16.9983L29.9314 29.7477ZM51.1804 42.4971C50.3399 42.4971 49.5183 42.2479 48.8194 41.7809C48.1205 41.3139 47.5758 40.6502 47.2541 39.8736C46.9325 39.0971 46.8483 38.2426 47.0123 37.4182C47.1763 36.5938 47.581 35.8366 48.1754 35.2422C48.7697 34.6479 49.527 34.2431 50.3513 34.0792C51.1757 33.9152 52.0302 33.9993 52.8068 34.321C53.5833 34.6427 54.2471 35.1874 54.714 35.8862C55.181 36.5851 55.4302 37.4068 55.4302 38.2473C55.4291 39.3741 54.981 40.4544 54.1843 41.2511C53.3875 42.0479 52.3072 42.496 51.1804 42.4971Z" fill="#36B0B5"/>
</svg>
