<svg width="68" height="68" viewBox="0 0 68 68" fill="none" xmlns="http://www.w3.org/2000/svg">
<path d="M33.9984 67.9968C24.9815 67.9968 16.3338 64.4149 9.95791 58.0389C3.58197 51.663 0 43.0154 0 33.9984C0 24.9815 3.58197 16.3338 9.95791 9.95791C16.3338 3.58197 24.9815 0 33.9984 0C43.0154 0 51.663 3.58197 58.0389 9.95791C64.4149 16.3338 67.9968 24.9815 67.9968 33.9984C67.9968 43.0154 64.4149 51.663 58.0389 58.0389C51.663 64.4149 43.0154 67.9968 33.9984 67.9968ZM22.099 30.5986C23.4515 30.5986 24.7487 30.0613 25.705 29.1049C26.6614 28.1485 27.1987 26.8514 27.1987 25.4988C27.1987 24.1463 26.6614 22.8491 25.705 21.8927C24.7487 20.9363 23.4515 20.3991 22.099 20.3991C20.7464 20.3991 19.4493 20.9363 18.4929 21.8927C17.5365 22.8491 16.9992 24.1463 16.9992 25.4988C16.9992 26.8514 17.5365 28.1485 18.4929 29.1049C19.4493 30.0613 20.7464 30.5986 22.099 30.5986ZM45.8979 30.5986C47.2504 30.5986 48.5476 30.0613 49.5039 29.1049C50.4603 28.1485 50.9976 26.8514 50.9976 25.4988C50.9976 24.1463 50.4603 22.8491 49.5039 21.8927C48.5476 20.9363 47.2504 20.3991 45.8979 20.3991C44.5453 20.3991 43.2482 20.9363 42.2918 21.8927C41.3354 22.8491 40.7981 24.1463 40.7981 25.4988C40.7981 26.8514 41.3354 28.1485 42.2918 29.1049C43.2482 30.0613 44.5453 30.5986 45.8979 30.5986ZM53.2415 40.7981H14.7553C16.157 44.7826 18.761 48.2338 22.2079 50.6752C25.6548 53.1166 29.7745 54.4278 33.9984 54.4278C38.2223 54.4278 42.3421 53.1166 45.7889 50.6752C49.2358 48.2338 51.8398 44.7826 53.2415 40.7981Z" fill="#36B0B5"/>
</svg>
