<svg width="54" height="54" viewBox="0 0 54 54" fill="none" xmlns="http://www.w3.org/2000/svg">
<path d="M47.7297 39.4755C46.0677 37.8121 44.1256 36.4544 41.9925 35.4648C45.0006 33.0278 46.9196 29.3092 46.9196 25.1391C46.9196 17.7816 40.784 11.7456 33.4265 11.8584C26.1819 11.9713 20.3451 17.8746 20.3451 25.1391C20.3451 29.3092 22.2708 33.0278 25.2722 35.4648C23.1387 36.4537 21.1965 37.8115 19.535 39.4755C15.9094 43.1078 13.8509 47.9021 13.7181 53.0151C13.7163 53.086 13.7287 53.1565 13.7546 53.2225C13.7805 53.2885 13.8194 53.3486 13.8689 53.3994C13.9184 53.4501 13.9775 53.4904 14.0429 53.518C14.1082 53.5455 14.1784 53.5597 14.2493 53.5596H17.9679C18.2534 53.5596 18.4924 53.3339 18.4991 53.0483C18.6252 49.1969 20.1857 45.5912 22.9282 42.8554C24.3315 41.4446 26.0008 40.3261 27.8393 39.5647C29.6778 38.8034 31.6491 38.4142 33.639 38.4197C37.6829 38.4197 41.4878 39.9935 44.3498 42.8554C47.0856 45.5912 48.6461 49.1969 48.7789 53.0483C48.7856 53.3339 49.0246 53.5596 49.3101 53.5596H53.0287C53.0996 53.5597 53.1698 53.5455 53.2351 53.518C53.3005 53.4904 53.3596 53.4501 53.4091 53.3994C53.4586 53.3486 53.4975 53.2885 53.5234 53.2225C53.5493 53.1565 53.5617 53.086 53.5599 53.0151C53.4271 47.9021 51.3686 43.1078 47.7297 39.4755ZM33.639 33.6387C31.368 33.6387 29.2298 32.7555 27.6295 31.1486C26.8264 30.3518 26.192 29.4014 25.7642 28.354C25.3363 27.3067 25.1239 26.184 25.1394 25.0528C25.1593 22.8747 26.0292 20.7698 27.5498 19.2093C29.1435 17.5758 31.275 16.666 33.5527 16.6395C35.8037 16.6196 37.9884 17.4961 39.5954 19.0698C41.2422 20.6834 42.1452 22.8415 42.1452 25.1391C42.1452 27.4101 41.2621 29.5416 39.6551 31.1486C38.8667 31.9407 37.9291 32.5687 36.8964 32.9961C35.8638 33.4235 34.7566 33.6419 33.639 33.6387ZM17.005 26.8921C16.9452 26.3144 16.912 25.7301 16.912 25.1391C16.912 24.0833 17.0116 23.054 17.1976 22.0513C17.2441 21.8123 17.1179 21.5666 16.8988 21.467C15.9957 21.0619 15.1656 20.5041 14.4485 19.8003C13.6034 18.9809 12.9385 17.9944 12.496 16.9036C12.0535 15.8129 11.8433 14.6419 11.8787 13.4654C11.9384 11.3339 12.795 9.30857 14.2891 7.78129C15.9293 6.10129 18.1339 5.18493 20.4779 5.21149C22.5962 5.23141 24.6414 6.04817 26.1886 7.49576C26.7131 7.98714 27.1647 8.53165 27.5432 9.116C27.676 9.32185 27.935 9.40817 28.1607 9.32849C29.3294 8.92343 30.5645 8.63789 31.8328 8.50509C32.2047 8.46525 32.4172 8.06683 32.2512 7.73481C30.0931 3.46509 25.6839 0.516789 20.5841 0.437105C13.22 0.32422 7.08438 6.36027 7.08438 13.7111C7.08438 17.8812 9.00343 21.5998 12.0115 24.0368C9.89987 25.0129 7.95426 26.3609 6.26762 28.0475C2.62873 31.6798 0.570228 36.4741 0.437422 41.5938C0.43565 41.6647 0.44808 41.7352 0.473982 41.8012C0.499884 41.8671 0.538733 41.9273 0.588239 41.978C0.637746 42.0288 0.696909 42.0691 0.762241 42.0966C0.827574 42.1241 0.897754 42.1383 0.968647 42.1383H4.69386C4.9794 42.1383 5.21845 41.9125 5.22509 41.627C5.35126 37.7756 6.91173 34.1699 9.65418 31.4341C11.6064 29.4818 13.9969 28.1272 16.6066 27.4698C16.8656 27.4034 17.0382 27.1577 17.005 26.8921Z" fill="#36B0B5"/>
</svg>
