<svg width="58" height="46" viewBox="0 0 58 46" fill="none" xmlns="http://www.w3.org/2000/svg">
<path d="M28.9272 37.2352L40.3308 25.8316L28.9272 14.4279L24.9607 18.3944L29.5647 22.9984H17.6652V28.6648H29.5647L24.9607 33.2687L28.9272 37.2352ZM6.33242 45.664C4.77416 45.664 3.43972 45.1087 2.32911 43.9981C1.21849 42.8875 0.664132 41.554 0.66602 39.9976V5.99917C0.66602 4.44091 1.22133 3.10647 2.33194 1.99586C3.44256 0.885242 4.77605 0.33088 6.33242 0.332768H23.3316L28.998 5.99917H51.6636C53.2219 5.99917 54.5563 6.55448 55.667 7.66509C56.7776 8.77571 57.3319 10.1092 57.33 11.6656V39.9976C57.33 41.5558 56.7747 42.8903 55.6641 44.0009C54.5535 45.1115 53.22 45.6659 51.6636 45.664H6.33242Z" fill="#36B0B5"/>
</svg>
