<svg width="58" height="55" viewBox="0 0 58 55" fill="none" xmlns="http://www.w3.org/2000/svg">
<path d="M23.3319 0.666382H34.6647C36.1675 0.666382 37.6088 1.26338 38.6714 2.32603C39.7341 3.38869 40.3311 4.82996 40.3311 6.33279V11.9992H51.6639C53.1667 11.9992 54.608 12.5962 55.6706 13.6588C56.7333 14.7215 57.3303 16.1628 57.3303 17.6656V48.8308C57.3303 50.3336 56.7333 51.7749 55.6706 52.8376C54.608 53.9002 53.1667 54.4972 51.6639 54.4972H6.33266C4.82984 54.4972 3.38857 53.9002 2.32591 52.8376C1.26325 51.7749 0.66626 50.3336 0.66626 48.8308V17.6656C0.66626 14.5207 3.18781 11.9992 6.33266 11.9992H17.6655V6.33279C17.6655 3.18793 20.187 0.666382 23.3319 0.666382ZM34.6647 11.9992V6.33279H23.3319V11.9992H34.6647Z" fill="#36B0B5"/>
</svg>
