<svg width="58" height="58" viewBox="0 0 58 58" fill="none" xmlns="http://www.w3.org/2000/svg">
<path fill-rule="evenodd" clip-rule="evenodd" d="M57.3303 28.9984C57.3303 44.6462 44.6461 57.3304 28.9983 57.3304C24.4652 57.3304 20.1814 56.2651 16.3849 54.3725C15.382 53.8542 14.2243 53.7202 13.1295 53.9957L6.82284 55.6843C6.19861 55.8509 5.54154 55.8503 4.91759 55.6827C4.29364 55.515 3.72477 55.1862 3.26807 54.7292C2.81136 54.2722 2.48291 53.7032 2.31566 53.0791C2.14841 52.4551 2.14826 51.798 2.31522 51.1739L4.00097 44.8672C4.27516 43.773 4.14015 42.6163 3.62132 41.6146C1.67104 37.6954 0.65936 33.3761 0.666295 28.9984C0.666295 13.3506 13.3505 0.666382 28.9983 0.666382C44.6461 0.666382 57.3303 13.3506 57.3303 28.9984ZM28.9983 15.5407C29.5619 15.5407 30.1023 15.7646 30.5008 16.1631C30.8993 16.5616 31.1232 17.102 31.1232 17.6656V17.6939C34.2086 18.4731 36.7896 20.9039 36.7896 24.2754C36.7896 24.839 36.5657 25.3795 36.1672 25.778C35.7687 26.1765 35.2283 26.4003 34.6647 26.4003C34.1012 26.4003 33.5607 26.1765 33.1622 25.778C32.7637 25.3795 32.5398 24.839 32.5398 24.2754C32.5398 23.1875 31.3329 21.6802 28.9983 21.6802C26.6637 21.6802 25.4568 23.1875 25.4568 24.2754C25.4568 25.3634 26.6637 26.8735 28.9983 26.8735C32.9223 26.8735 36.7896 29.5934 36.7896 33.7213C36.7896 37.0928 34.2086 39.5266 31.1232 40.3029V40.3312C31.1232 40.8948 30.8993 41.4352 30.5008 41.8337C30.1023 42.2322 29.5619 42.4561 28.9983 42.4561C28.4347 42.4561 27.8943 42.2322 27.4958 41.8337C27.0973 41.4352 26.8734 40.8948 26.8734 40.3312V40.3029C23.788 39.5266 21.207 37.0928 21.207 33.7213C21.207 33.1578 21.4309 32.6173 21.8294 32.2188C22.2279 31.8203 22.7683 31.5964 23.3319 31.5964C23.8955 31.5964 24.4359 31.8203 24.8344 32.2188C25.2329 32.6173 25.4568 33.1578 25.4568 33.7213C25.4568 34.8093 26.6637 36.3166 28.9983 36.3166C31.3329 36.3166 32.5398 34.8093 32.5398 33.7213C32.5398 32.6334 31.3329 31.1233 28.9983 31.1233C25.0743 31.1233 21.207 28.4034 21.207 24.2754C21.207 20.9039 23.788 18.4731 26.8734 17.6939V17.6656C26.8734 17.102 27.0973 16.5616 27.4958 16.1631C27.8943 15.7646 28.4347 15.5407 28.9983 15.5407Z" fill="#36B0B5"/>
</svg>
