<svg width="52" height="52" viewBox="0 0 52 52" fill="none" xmlns="http://www.w3.org/2000/svg">
<path d="M41.5809 25.9984C40.4538 25.9984 39.3729 25.5507 38.5759 24.7537C37.7789 23.9567 37.3311 22.8758 37.3311 21.7486C37.3311 20.6215 37.7789 19.5406 38.5759 18.7436C39.3729 17.9466 40.4538 17.4988 41.5809 17.4988C42.708 17.4988 43.789 17.9466 44.586 18.7436C45.383 19.5406 45.8307 20.6215 45.8307 21.7486C45.8307 22.8758 45.383 23.9567 44.586 24.7537C43.789 25.5507 42.708 25.9984 41.5809 25.9984ZM33.0813 14.6656C31.9542 14.6656 30.8733 14.2179 30.0763 13.4209C29.2793 12.6239 28.8315 11.543 28.8315 10.4158C28.8315 9.28872 29.2793 8.20777 30.0763 7.41077C30.8733 6.61378 31.9542 6.16604 33.0813 6.16604C34.2084 6.16604 35.2894 6.61378 36.0864 7.41077C36.8834 8.20777 37.3311 9.28872 37.3311 10.4158C37.3311 11.543 36.8834 12.6239 36.0864 13.4209C35.2894 14.2179 34.2084 14.6656 33.0813 14.6656ZM18.9153 14.6656C17.7882 14.6656 16.7072 14.2179 15.9103 13.4209C15.1133 12.6239 14.6655 11.543 14.6655 10.4158C14.6655 9.28872 15.1133 8.20777 15.9103 7.41077C16.7072 6.61378 17.7882 6.16604 18.9153 6.16604C20.0424 6.16604 21.1234 6.61378 21.9204 7.41077C22.7174 8.20777 23.1651 9.28872 23.1651 10.4158C23.1651 11.543 22.7174 12.6239 21.9204 13.4209C21.1234 14.2179 20.0424 14.6656 18.9153 14.6656ZM10.4157 25.9984C9.2886 25.9984 8.20764 25.5507 7.41065 24.7537C6.61366 23.9567 6.16591 22.8758 6.16591 21.7486C6.16591 20.6215 6.61366 19.5406 7.41065 18.7436C8.20764 17.9466 9.2886 17.4988 10.4157 17.4988C11.5428 17.4988 12.6238 17.9466 13.4208 18.7436C14.2178 19.5406 14.6655 20.6215 14.6655 21.7486C14.6655 22.8758 14.2178 23.9567 13.4208 24.7537C12.6238 25.5507 11.5428 25.9984 10.4157 25.9984ZM25.9983 0.499634C19.2356 0.499634 12.7499 3.18611 7.96794 7.96806C3.18599 12.75 0.499512 19.2357 0.499512 25.9984C0.499512 32.7612 3.18599 39.2469 7.96794 44.0288C12.7499 48.8108 19.2356 51.4973 25.9983 51.4973C27.1254 51.4973 28.2064 51.0495 29.0034 50.2525C29.8004 49.4555 30.2481 48.3746 30.2481 47.2475C30.2481 46.1425 29.8231 45.1509 29.1432 44.4143C28.4915 43.6493 28.0666 42.6577 28.0666 41.5811C28.0666 40.4539 28.5143 39.373 29.3113 38.576C30.1083 37.779 31.1892 37.3313 32.3164 37.3313H37.3311C41.0882 37.3313 44.6914 35.8388 47.348 33.1821C50.0047 30.5255 51.4971 26.9223 51.4971 23.1652C51.4971 10.6425 40.0793 0.499634 25.9983 0.499634Z" fill="#36B0B5"/>
</svg>
